<svg xmlns="http://www.w3.org/2000/svg" viewBox="0 0 1040 580" fill="none">
  <defs>
    <linearGradient id="g1" x1="0" y1="0" x2="1" y2="1"><stop offset="0%" stop-color="#0088ff"/><stop offset="100%" stop-color="#00c8ff"/></linearGradient>
    <filter id="shadow"><feDropShadow dx="0" dy="4" stdDeviation="8" flood-color="#000" flood-opacity="0.5"/></filter>
    <clipPath id="clip"><rect x="20" y="20" width="1000" height="540" rx="12"/></clipPath>
  </defs>
  <g filter="url(#shadow)">
    <rect x="20" y="20" width="1000" height="540" rx="12" fill="#1a1a2e"/>
  </g>
  <g clip-path="url(#clip)">
    <!-- Title bar -->
    <rect x="20" y="20" width="1000" height="38" fill="#16162a"/>
    <circle cx="46" cy="39" r="6" fill="#ff5f57"/><circle cx="66" cy="39" r="6" fill="#febc2e"/><circle cx="86" cy="39" r="6" fill="#28c840"/>
    <rect x="340" y="28" width="360" height="22" rx="6" fill="#0d0d1a"/>
    <text x="408" y="44" font-family="system-ui,sans-serif" font-size="11" fill="#5a6a78">https://localhost:8833</text>
    <!-- App header -->
    <rect x="20" y="58" width="1000" height="52" fill="#111820"/>
    <text x="48" y="90" font-family="monospace" font-size="19" font-weight="700" fill="url(#g1)">curmux</text>
    <text x="130" y="90" font-family="monospace" font-size="11" fill="#3a4a58">v0.1.0</text>
    <rect x="740" y="72" width="256" height="28" rx="7" fill="#0a0e14"/>
    <text x="758" y="91" font-family="system-ui,sans-serif" font-size="11.5" font-weight="500" fill="#4a5a68">Sessions</text>
    <rect x="826" y="75" width="56" height="22" rx="5" fill="#1a2230"/>
    <text x="836" y="91" font-family="system-ui,sans-serif" font-size="11.5" font-weight="600" fill="#e0e8f0">Board</text>
    <text x="920" y="91" font-family="system-ui,sans-serif" font-size="11.5" font-weight="500" fill="#4a5a68">Alerts</text>
    <line x1="20" y1="110" x2="1020" y2="110" stroke="#1e2a38"/>
    <rect x="20" y="110" width="1000" height="450" fill="#0a0e14"/>

    <!-- Add task bar -->
    <rect x="48" y="128" width="620" height="38" rx="7" fill="#111820" stroke="#1e2a38"/>
    <text x="64" y="152" font-family="monospace" font-size="12" fill="#3a4a58">New task title...</text>
    <rect x="680" y="128" width="130" height="38" rx="7" fill="#111820" stroke="#1e2a38"/>
    <text x="696" y="152" font-family="monospace" font-size="12" fill="#3a4a58">Project</text>
    <rect x="822" y="128" width="64" height="38" rx="7" fill="#0088ff"/>
    <text x="838" y="152" font-family="monospace" font-size="12" font-weight="600" fill="#fff">Add</text>

    <!-- Column: Todo -->
    <text x="58" y="200" font-family="monospace" font-size="12" font-weight="700" fill="#5a6a78" letter-spacing="1.5">TODO</text>
    <text x="118" y="200" font-family="monospace" font-size="12" fill="#3a4a58">(3)</text>
    <line x1="48" y1="212" x2="340" y2="212" stroke="#0088ff" stroke-width="2"/>

    <rect x="48" y="224" width="292" height="76" rx="8" fill="#111820" stroke="#1e2a38"/>
    <text x="64" y="246" font-family="monospace" font-size="10" fill="#3a4a58">API-1A2B3C</text>
    <text x="64" y="268" font-family="system-ui,sans-serif" font-size="13.5" font-weight="500" fill="#c8d0d8">Add login endpoint</text>
    <text x="64" y="286" font-family="monospace" font-size="10" fill="#3a4a58">2m ago</text>

    <rect x="48" y="310" width="292" height="76" rx="8" fill="#111820" stroke="#1e2a38"/>
    <text x="64" y="332" font-family="monospace" font-size="10" fill="#3a4a58">API-4D5E6F</text>
    <text x="64" y="354" font-family="system-ui,sans-serif" font-size="13.5" font-weight="500" fill="#c8d0d8">Write integration tests</text>
    <text x="64" y="372" font-family="monospace" font-size="10" fill="#3a4a58">5m ago</text>

    <rect x="48" y="396" width="292" height="76" rx="8" fill="#111820" stroke="#1e2a38"/>
    <text x="64" y="418" font-family="monospace" font-size="10" fill="#3a4a58">UI-7G8H9I</text>
    <text x="64" y="440" font-family="system-ui,sans-serif" font-size="13.5" font-weight="500" fill="#c8d0d8">Dashboard dark mode toggle</text>
    <text x="64" y="458" font-family="monospace" font-size="10" fill="#3a4a58">12m ago</text>

    <!-- Column: Claimed -->
    <text x="378" y="200" font-family="monospace" font-size="12" font-weight="700" fill="#5a6a78" letter-spacing="1.5">CLAIMED</text>
    <text x="464" y="200" font-family="monospace" font-size="12" fill="#3a4a58">(2)</text>
    <line x1="368" y1="212" x2="660" y2="212" stroke="#eab308" stroke-width="2"/>

    <rect x="368" y="224" width="292" height="90" rx="8" fill="#111820" stroke="#1e2a38"/>
    <text x="384" y="246" font-family="monospace" font-size="10" fill="#3a4a58">API-J0K1L2</text>
    <text x="384" y="268" font-family="system-ui,sans-serif" font-size="13.5" font-weight="500" fill="#c8d0d8">Setup auth middleware</text>
    <rect x="384" y="280" width="36" height="18" rx="4" fill="#eab308" fill-opacity="0.12"/>
    <text x="392" y="294" font-family="monospace" font-size="10" font-weight="600" fill="#eab308">api</text>

    <rect x="368" y="324" width="292" height="90" rx="8" fill="#111820" stroke="#1e2a38"/>
    <text x="384" y="346" font-family="monospace" font-size="10" fill="#3a4a58">UI-M3N4O5</text>
    <text x="384" y="368" font-family="system-ui,sans-serif" font-size="13.5" font-weight="500" fill="#c8d0d8">Build nav component</text>
    <rect x="384" y="380" width="66" height="18" rx="4" fill="#eab308" fill-opacity="0.12"/>
    <text x="392" y="394" font-family="monospace" font-size="10" font-weight="600" fill="#eab308">frontend</text>

    <!-- Column: Done -->
    <text x="698" y="200" font-family="monospace" font-size="12" font-weight="700" fill="#5a6a78" letter-spacing="1.5">DONE</text>
    <text x="750" y="200" font-family="monospace" font-size="12" fill="#3a4a58">(2)</text>
    <line x1="688" y1="212" x2="980" y2="212" stroke="#22c55e" stroke-width="2"/>

    <rect x="688" y="224" width="292" height="76" rx="8" fill="#111820" stroke="#1e2a38"/>
    <text x="704" y="246" font-family="monospace" font-size="10" fill="#3a4a58">API-P6Q7R8</text>
    <text x="704" y="268" font-family="system-ui,sans-serif" font-size="13.5" font-weight="500" fill="#c8d0d8">Init project structure</text>
    <text x="704" y="286" font-family="monospace" font-size="10" fill="#22c55e">✓ 18m ago</text>

    <rect x="688" y="310" width="292" height="76" rx="8" fill="#111820" stroke="#1e2a38"/>
    <text x="704" y="332" font-family="monospace" font-size="10" fill="#3a4a58">API-S9T0U1</text>
    <text x="704" y="354" font-family="system-ui,sans-serif" font-size="13.5" font-weight="500" fill="#c8d0d8">Configure database schema</text>
    <text x="704" y="372" font-family="monospace" font-size="10" fill="#22c55e">✓ 14m ago</text>
  </g>
</svg>
