<svg xmlns="http://www.w3.org/2000/svg" viewBox="0 0 960 480" fill="none">
  <defs>
    <linearGradient id="logo" x1="0" y1="0" x2="1" y2="1"><stop offset="0%" stop-color="#0088ff"/><stop offset="100%" stop-color="#00c8ff"/></linearGradient>
  </defs>
  <rect width="960" height="480" rx="12" fill="#0a0e14"/>
  <!-- Header -->
  <rect y="0" width="960" height="56" rx="12" fill="#111820"/>
  <rect x="0" y="44" width="960" height="12" fill="#111820"/>
  <line x1="0" y1="56" x2="960" y2="56" stroke="#1e2a38"/>
  <text x="24" y="36" font-family="monospace" font-size="18" font-weight="700" fill="url(#logo)">curmux</text>
  <text x="100" y="36" font-family="monospace" font-size="11" fill="#5a6a78">v0.1.0</text>
  <!-- Tabs -->
  <rect x="680" y="14" width="256" height="30" rx="8" fill="#0a0e14"/>
  <text x="700" y="34" font-family="sans-serif" font-size="12" font-weight="500" fill="#5a6a78">Sessions</text>
  <rect x="770" y="17" width="60" height="24" rx="6" fill="#1a2230"/>
  <text x="782" y="34" font-family="sans-serif" font-size="12" font-weight="500" fill="#c8d0d8">Board</text>
  <text x="864" y="34" font-family="sans-serif" font-size="12" font-weight="500" fill="#5a6a78">Alerts</text>
  <!-- Add task bar -->
  <rect x="24" y="76" width="600" height="36" rx="6" fill="#111820" stroke="#1e2a38"/>
  <text x="40" y="99" font-family="monospace" font-size="13" fill="#5a6a78">New task title...</text>
  <rect x="636" y="76" width="120" height="36" rx="6" fill="#111820" stroke="#1e2a38"/>
  <text x="652" y="99" font-family="monospace" font-size="13" fill="#5a6a78">Project</text>
  <rect x="768" y="76" width="60" height="36" rx="6" fill="#0088ff"/>
  <text x="784" y="99" font-family="monospace" font-size="11" font-weight="600" fill="#fff">Add</text>
  <!-- Column: Todo -->
  <text x="44" y="148" font-family="monospace" font-size="13" font-weight="600" fill="#5a6a78" letter-spacing="1">TODO (3)</text>
  <line x1="24" y1="158" x2="310" y2="158" stroke="#0088ff" stroke-width="2"/>
  <rect x="24" y="170" width="286" height="72" rx="8" fill="#111820" stroke="#1e2a38"/>
  <text x="40" y="192" font-family="monospace" font-size="10" fill="#5a6a78">API-1A2B3C</text>
  <text x="40" y="212" font-family="sans-serif" font-size="14" font-weight="500" fill="#c8d0d8">Add login endpoint</text>
  <rect x="24" y="252" width="286" height="72" rx="8" fill="#111820" stroke="#1e2a38"/>
  <text x="40" y="274" font-family="monospace" font-size="10" fill="#5a6a78">API-4D5E6F</text>
  <text x="40" y="294" font-family="sans-serif" font-size="14" font-weight="500" fill="#c8d0d8">Write integration tests</text>
  <rect x="24" y="334" width="286" height="72" rx="8" fill="#111820" stroke="#1e2a38"/>
  <text x="40" y="356" font-family="monospace" font-size="10" fill="#5a6a78">UI-7G8H9I</text>
  <text x="40" y="376" font-family="sans-serif" font-size="14" font-weight="500" fill="#c8d0d8">Dashboard dark mode</text>
  <!-- Column: Claimed -->
  <text x="356" y="148" font-family="monospace" font-size="13" font-weight="600" fill="#5a6a78" letter-spacing="1">CLAIMED (2)</text>
  <line x1="336" y1="158" x2="622" y2="158" stroke="#eab308" stroke-width="2"/>
  <rect x="336" y="170" width="286" height="88" rx="8" fill="#111820" stroke="#1e2a38"/>
  <text x="352" y="192" font-family="monospace" font-size="10" fill="#5a6a78">API-J0K1L2</text>
  <text x="352" y="212" font-family="sans-serif" font-size="14" font-weight="500" fill="#c8d0d8">Setup auth middleware</text>
  <text x="352" y="236" font-family="monospace" font-size="11" fill="#eab308">api</text>
  <rect x="336" y="268" width="286" height="88" rx="8" fill="#111820" stroke="#1e2a38"/>
  <text x="352" y="290" font-family="monospace" font-size="10" fill="#5a6a78">UI-M3N4O5</text>
  <text x="352" y="310" font-family="sans-serif" font-size="14" font-weight="500" fill="#c8d0d8">Build nav component</text>
  <text x="352" y="334" font-family="monospace" font-size="11" fill="#eab308">frontend</text>
  <!-- Column: Done -->
  <text x="668" y="148" font-family="monospace" font-size="13" font-weight="600" fill="#5a6a78" letter-spacing="1">DONE (1)</text>
  <line x1="648" y1="158" x2="934" y2="158" stroke="#22c55e" stroke-width="2"/>
  <rect x="648" y="170" width="286" height="72" rx="8" fill="#111820" stroke="#1e2a38"/>
  <text x="664" y="192" font-family="monospace" font-size="10" fill="#5a6a78">API-P6Q7R8</text>
  <text x="664" y="212" font-family="sans-serif" font-size="14" font-weight="500" fill="#c8d0d8">Init project structure</text>
</svg>
