<svg xmlns="http://www.w3.org/2000/svg" viewBox="0 0 960 520" fill="none">
  <defs>
    <linearGradient id="logo" x1="0" y1="0" x2="1" y2="1"><stop offset="0%" stop-color="#0088ff"/><stop offset="100%" stop-color="#00c8ff"/></linearGradient>
  </defs>
  <rect width="960" height="520" rx="12" fill="#0a0e14"/>
  <!-- Header -->
  <rect y="0" width="960" height="56" rx="12" fill="#111820"/>
  <rect x="0" y="44" width="960" height="12" fill="#111820"/>
  <line x1="0" y1="56" x2="960" y2="56" stroke="#1e2a38"/>
  <text x="24" y="36" font-family="monospace" font-size="18" font-weight="700" fill="url(#logo)">curmux</text>
  <text x="100" y="36" font-family="monospace" font-size="11" fill="#5a6a78">v0.1.0</text>
  <!-- Tabs -->
  <rect x="680" y="14" width="256" height="30" rx="8" fill="#0a0e14"/>
  <rect x="684" y="17" width="76" height="24" rx="6" fill="#1a2230"/>
  <text x="700" y="34" font-family="sans-serif" font-size="12" font-weight="500" fill="#c8d0d8">Sessions</text>
  <text x="784" y="34" font-family="sans-serif" font-size="12" font-weight="500" fill="#5a6a78">Board</text>
  <text x="864" y="34" font-family="sans-serif" font-size="12" font-weight="500" fill="#5a6a78">Alerts</text>
  <!-- Session Card 1 -->
  <rect x="24" y="80" width="440" height="180" rx="10" fill="#111820" stroke="#1e2a38"/>
  <text x="44" y="112" font-family="monospace" font-size="15" font-weight="600" fill="#c8d0d8">api</text>
  <circle cx="410" cy="106" r="4" fill="#22c55e"/>
  <text x="420" y="112" font-family="sans-serif" font-size="12" font-weight="500" fill="#22c55e">working</text>
  <text x="44" y="136" font-family="monospace" font-size="11" fill="#5a6a78">/home/mark/project</text>
  <!-- Flags -->
  <rect x="44" y="150" width="40" height="20" rx="4" fill="#1a2230" stroke="#1e2a38"/>
  <text x="52" y="164" font-family="monospace" font-size="10" fill="#5a6a78">yolo</text>
  <rect x="92" y="150" width="84" height="20" rx="4" fill="#1a2230" stroke="#1e2a38"/>
  <text x="100" y="164" font-family="monospace" font-size="10" fill="#5a6a78">sonnet-4</text>
  <!-- Buttons -->
  <rect x="44" y="190" width="60" height="28" rx="6" fill="#1a2230" stroke="#1e2a38"/>
  <text x="58" y="209" font-family="monospace" font-size="11" font-weight="600" fill="#c8d0d8">Peek</text>
  <rect x="114" y="190" width="60" height="28" rx="6" fill="#1a2230" stroke="#1e2a38"/>
  <text x="128" y="209" font-family="monospace" font-size="11" font-weight="600" fill="#c8d0d8">Stop</text>
  <!-- Session Card 2 -->
  <rect x="496" y="80" width="440" height="180" rx="10" fill="#111820" stroke="#1e2a38"/>
  <text x="516" y="112" font-family="monospace" font-size="15" font-weight="600" fill="#c8d0d8">frontend</text>
  <circle cx="882" cy="106" r="4" fill="#0088ff">
    <animate attributeName="opacity" values="1;0.4;1" dur="2s" repeatCount="indefinite"/>
  </circle>
  <text x="892" y="112" font-family="sans-serif" font-size="12" font-weight="500" fill="#0088ff">working</text>
  <text x="516" y="136" font-family="monospace" font-size="11" fill="#5a6a78">/home/mark/project</text>
  <rect x="516" y="150" width="40" height="20" rx="4" fill="#1a2230" stroke="#1e2a38"/>
  <text x="524" y="164" font-family="monospace" font-size="10" fill="#5a6a78">yolo</text>
  <rect x="564" y="150" width="68" height="20" rx="4" fill="#1a2230" stroke="#1e2a38"/>
  <text x="572" y="164" font-family="monospace" font-size="10" fill="#5a6a78">worktree</text>
  <rect x="516" y="190" width="60" height="28" rx="6" fill="#1a2230" stroke="#1e2a38"/>
  <text x="530" y="209" font-family="monospace" font-size="11" font-weight="600" fill="#c8d0d8">Peek</text>
  <rect x="586" y="190" width="60" height="28" rx="6" fill="#1a2230" stroke="#1e2a38"/>
  <text x="600" y="209" font-family="monospace" font-size="11" font-weight="600" fill="#c8d0d8">Stop</text>
  <!-- Session Card 3 -->
  <rect x="24" y="284" width="440" height="180" rx="10" fill="#111820" stroke="#1e2a38"/>
  <text x="44" y="316" font-family="monospace" font-size="15" font-weight="600" fill="#c8d0d8">tests</text>
  <circle cx="410" cy="310" r="4" fill="#5a6a78"/>
  <text x="420" y="316" font-family="sans-serif" font-size="12" font-weight="500" fill="#5a6a78">stopped</text>
  <text x="44" y="340" font-family="monospace" font-size="11" fill="#5a6a78">/home/mark/project</text>
  <rect x="44" y="354" width="40" height="20" rx="4" fill="#1a2230" stroke="#1e2a38"/>
  <text x="52" y="368" font-family="monospace" font-size="10" fill="#5a6a78">yolo</text>
  <rect x="44" y="394" width="66" height="28" rx="6" fill="#0088ff" stroke="#0088ff"/>
  <text x="54" y="413" font-family="monospace" font-size="11" font-weight="600" fill="#fff">Start</text>
</svg>
