<svg xmlns="http://www.w3.org/2000/svg" viewBox="0 0 1040 600" fill="none">
  <defs>
    <linearGradient id="g1" x1="0" y1="0" x2="1" y2="1"><stop offset="0%" stop-color="#0088ff"/><stop offset="100%" stop-color="#00c8ff"/></linearGradient>
    <filter id="shadow"><feDropShadow dx="0" dy="4" stdDeviation="8" flood-color="#000" flood-opacity="0.5"/></filter>
    <clipPath id="clip"><rect x="20" y="20" width="1000" height="560" rx="12"/></clipPath>
  </defs>
  <!-- Browser frame -->
  <g filter="url(#shadow)">
    <rect x="20" y="20" width="1000" height="560" rx="12" fill="#1a1a2e"/>
  </g>
  <g clip-path="url(#clip)">
    <!-- Title bar -->
    <rect x="20" y="20" width="1000" height="38" fill="#16162a"/>
    <circle cx="46" cy="39" r="6" fill="#ff5f57"/><circle cx="66" cy="39" r="6" fill="#febc2e"/><circle cx="86" cy="39" r="6" fill="#28c840"/>
    <rect x="340" y="28" width="360" height="22" rx="6" fill="#0d0d1a"/>
    <text x="408" y="44" font-family="system-ui,sans-serif" font-size="11" fill="#5a6a78">https://localhost:8833</text>
    <!-- App header -->
    <rect x="20" y="58" width="1000" height="52" fill="#111820"/>
    <text x="48" y="90" font-family="monospace" font-size="19" font-weight="700" fill="url(#g1)">curmux</text>
    <text x="130" y="90" font-family="monospace" font-size="11" fill="#3a4a58">v0.1.0</text>
    <!-- Tabs -->
    <rect x="740" y="72" width="256" height="28" rx="7" fill="#0a0e14"/>
    <rect x="744" y="75" width="72" height="22" rx="5" fill="#1a2230"/>
    <text x="758" y="91" font-family="system-ui,sans-serif" font-size="11.5" font-weight="600" fill="#e0e8f0">Sessions</text>
    <text x="838" y="91" font-family="system-ui,sans-serif" font-size="11.5" font-weight="500" fill="#4a5a68">Board</text>
    <text x="920" y="91" font-family="system-ui,sans-serif" font-size="11.5" font-weight="500" fill="#4a5a68">Alerts</text>
    <line x1="20" y1="110" x2="1020" y2="110" stroke="#1e2a38"/>
    <!-- Content bg -->
    <rect x="20" y="110" width="1000" height="470" fill="#0a0e14"/>

    <!-- Card 1: api — working -->
    <rect x="48" y="134" width="460" height="190" rx="10" fill="#111820" stroke="#1e2a38"/>
    <rect x="48" y="134" width="460" height="190" rx="10" fill="none" stroke="#0088ff" stroke-opacity="0.15"/>
    <text x="72" y="168" font-family="monospace" font-size="15" font-weight="700" fill="#e0e8f0">api</text>
    <!-- Status badge -->
    <rect x="408" y="152" width="76" height="22" rx="11" fill="#0088ff" fill-opacity="0.12"/>
    <circle cx="424" cy="163" r="4" fill="#0088ff"><animate attributeName="opacity" values="1;0.3;1" dur="2s" repeatCount="indefinite"/></circle>
    <text x="434" y="168" font-family="system-ui,sans-serif" font-size="11" font-weight="600" fill="#0088ff">working</text>
    <!-- Dir -->
    <text x="72" y="192" font-family="monospace" font-size="11" fill="#4a5a68">/home/mark/project</text>
    <!-- Flags -->
    <rect x="72" y="204" width="42" height="20" rx="4" fill="#0a0e14" stroke="#1e2a38"/>
    <text x="80" y="218" font-family="monospace" font-size="10" font-weight="500" fill="#5a6a78">yolo</text>
    <rect x="122" y="204" width="80" height="20" rx="4" fill="#0a0e14" stroke="#1e2a38"/>
    <text x="130" y="218" font-family="monospace" font-size="10" font-weight="500" fill="#5a6a78">sonnet-4</text>
    <!-- Uptime -->
    <text x="72" y="252" font-family="monospace" font-size="10" fill="#3a4a58">⏱ 14m 32s</text>
    <!-- Buttons -->
    <rect x="72" y="274" width="64" height="30" rx="6" fill="#0a0e14" stroke="#1e2a38"/>
    <text x="85" y="294" font-family="monospace" font-size="11" font-weight="600" fill="#c8d0d8">Peek</text>
    <rect x="146" y="274" width="64" height="30" rx="6" fill="#0a0e14" stroke="#ef4444" stroke-opacity="0.4"/>
    <text x="159" y="294" font-family="monospace" font-size="11" font-weight="600" fill="#ef4444" fill-opacity="0.8">Stop</text>

    <!-- Card 2: frontend — working -->
    <rect x="532" y="134" width="460" height="190" rx="10" fill="#111820" stroke="#1e2a38"/>
    <rect x="532" y="134" width="460" height="190" rx="10" fill="none" stroke="#0088ff" stroke-opacity="0.15"/>
    <text x="556" y="168" font-family="monospace" font-size="15" font-weight="700" fill="#e0e8f0">frontend</text>
    <rect x="892" y="152" width="76" height="22" rx="11" fill="#22c55e" fill-opacity="0.12"/>
    <circle cx="908" cy="163" r="4" fill="#22c55e"/>
    <text x="918" y="168" font-family="system-ui,sans-serif" font-size="11" font-weight="600" fill="#22c55e">idle</text>
    <text x="556" y="192" font-family="monospace" font-size="11" fill="#4a5a68">/home/mark/project</text>
    <rect x="556" y="204" width="42" height="20" rx="4" fill="#0a0e14" stroke="#1e2a38"/>
    <text x="564" y="218" font-family="monospace" font-size="10" font-weight="500" fill="#5a6a78">yolo</text>
    <rect x="606" y="204" width="68" height="20" rx="4" fill="#0a0e14" stroke="#1e2a38"/>
    <text x="614" y="218" font-family="monospace" font-size="10" font-weight="500" fill="#5a6a78">worktree</text>
    <text x="556" y="252" font-family="monospace" font-size="10" fill="#3a4a58">⏱ 8m 15s</text>
    <rect x="556" y="274" width="64" height="30" rx="6" fill="#0a0e14" stroke="#1e2a38"/>
    <text x="569" y="294" font-family="monospace" font-size="11" font-weight="600" fill="#c8d0d8">Peek</text>
    <rect x="630" y="274" width="64" height="30" rx="6" fill="#0a0e14" stroke="#ef4444" stroke-opacity="0.4"/>
    <text x="643" y="294" font-family="monospace" font-size="11" font-weight="600" fill="#ef4444" fill-opacity="0.8">Stop</text>

    <!-- Card 3: tests — stopped -->
    <rect x="48" y="348" width="460" height="190" rx="10" fill="#111820" stroke="#1e2a38"/>
    <text x="72" y="382" font-family="monospace" font-size="15" font-weight="700" fill="#e0e8f0">tests</text>
    <rect x="408" y="366" width="82" height="22" rx="11" fill="#4a5a68" fill-opacity="0.12"/>
    <circle cx="424" cy="377" r="4" fill="#4a5a68"/>
    <text x="434" y="382" font-family="system-ui,sans-serif" font-size="11" font-weight="600" fill="#4a5a68">stopped</text>
    <text x="72" y="406" font-family="monospace" font-size="11" fill="#4a5a68">/home/mark/project</text>
    <rect x="72" y="418" width="42" height="20" rx="4" fill="#0a0e14" stroke="#1e2a38"/>
    <text x="80" y="432" font-family="monospace" font-size="10" font-weight="500" fill="#5a6a78">yolo</text>
    <rect x="72" y="488" width="72" height="30" rx="6" fill="#0088ff"/>
    <text x="88" y="508" font-family="monospace" font-size="11" font-weight="600" fill="#fff">Start</text>

    <!-- Card 4: refactor — error -->
    <rect x="532" y="348" width="460" height="190" rx="10" fill="#111820" stroke="#1e2a38"/>
    <rect x="532" y="348" width="460" height="190" rx="10" fill="none" stroke="#ef4444" stroke-opacity="0.1"/>
    <text x="556" y="382" font-family="monospace" font-size="15" font-weight="700" fill="#e0e8f0">refactor</text>
    <rect x="892" y="366" width="76" height="22" rx="11" fill="#ef4444" fill-opacity="0.12"/>
    <circle cx="908" cy="377" r="4" fill="#ef4444"><animate attributeName="opacity" values="1;0.5;1" dur="1.5s" repeatCount="indefinite"/></circle>
    <text x="918" y="382" font-family="system-ui,sans-serif" font-size="11" font-weight="600" fill="#ef4444">error</text>
    <text x="556" y="406" font-family="monospace" font-size="11" fill="#4a5a68">/home/mark/legacy-app</text>
    <rect x="556" y="418" width="42" height="20" rx="4" fill="#0a0e14" stroke="#1e2a38"/>
    <text x="564" y="432" font-family="monospace" font-size="10" font-weight="500" fill="#5a6a78">yolo</text>
    <rect x="606" y="418" width="68" height="20" rx="4" fill="#0a0e14" stroke="#1e2a38"/>
    <text x="614" y="432" font-family="monospace" font-size="10" font-weight="500" fill="#5a6a78">worktree</text>
    <text x="556" y="466" font-family="monospace" font-size="10" fill="#3a4a58">⏱ 22m 07s</text>
    <rect x="556" y="488" width="64" height="30" rx="6" fill="#0a0e14" stroke="#1e2a38"/>
    <text x="569" y="508" font-family="monospace" font-size="11" font-weight="600" fill="#c8d0d8">Peek</text>
    <rect x="630" y="488" width="64" height="30" rx="6" fill="#0a0e14" stroke="#ef4444" stroke-opacity="0.4"/>
    <text x="643" y="508" font-family="monospace" font-size="11" font-weight="600" fill="#ef4444" fill-opacity="0.8">Stop</text>
  </g>
</svg>
